<svg xmlns="http://www.w3.org/2000/svg" xmlns:xlink="http://www.w3.org/1999/xlink" viewBox="0,0,256,256" width="48px" height="48px" fill-rule="nonzero"><defs><linearGradient x1="10.903" y1="3.403" x2="55.383" y2="47.882" gradientUnits="userSpaceOnUse" id="color-1"><stop offset="0" stop-color="#ffc000"></stop><stop offset="1" stop-color="#262626" stop-opacity="0.8"></stop></linearGradient><linearGradient x1="0.417" y1="34.5" x2="22.082" y2="34.5" gradientUnits="userSpaceOnUse" id="color-2"><stop offset="0" stop-color="#ffc000"></stop><stop offset="1" stop-color="#262626" stop-opacity="0.8"></stop></linearGradient><linearGradient x1="1.159" y1="23.5" x2="32.204" y2="23.5" gradientUnits="userSpaceOnUse" id="color-3"><stop offset="0" stop-color="#ffc000"></stop><stop offset="1" stop-color="#262626" stop-opacity="0.8"></stop></linearGradient></defs><g fill="none" fill-rule="nonzero" stroke="none" stroke-width="1" stroke-linecap="butt" stroke-linejoin="miter" stroke-miterlimit="10" stroke-dasharray="" stroke-dashoffset="0" font-family="none" font-weight="none" font-size="none" text-anchor="none" style="mix-blend-mode: normal"><g transform="scale(5.33333,5.33333)"><path d="M31.871,37.75c1.795,3.109 5.847,4.144 8.879,2.379c3.103,-1.806 4.174,-5.77 2.379,-8.879l-13,-22c-1.795,-3.109 -5.835,-4.144 -8.879,-2.379c-3.106,1.801 -4.174,5.77 -2.379,8.879z" fill="url(#color-1)"></path><circle cx="11.5" cy="34.5" r="6.5" fill="url(#color-2)"></circle><path d="M18.871,15.75c-1.203,-2.084 -1.115,-4.552 0.006,-6.496l-0.006,-0.004l-13,22l0.004,0.002c1.124,-1.942 3.219,-3.252 5.625,-3.252c3.59,0 6.5,2.91 6.5,6.5c0,1.184 -0.322,2.291 -0.875,3.248l0.004,0.002l7.371,-12.474z" fill="url(#color-3)"></path></g></g></svg>